#!OML:ASF H:\GeneralSubjects\Female5\Project 1\Capture day 1\Session 1\Female5.ASF
:FULLY-SPECIFIED
:DEGREES
874
root 5.87827 16.1926 -0.0132896 94.21 -86.129 -81.7693
lowerback 3.76067 0.99528 1.03853
upperback -11.2395 1.45645 3.77399
thorax -14.537 0.671432 3.42664
lowerneck -13.2546 -8.82964 -8.2271
upperneck 29.2143 -15.26 10.4035
head 13.5635 -6.77271 2.86903
rclavicle -7.95139e-015 2.8625e-014
rhumerus -58.2034 35.9197 -100.121
rradius 38.0585
rwrist -4.64858
rhand -24.846 -14.6563
rfingers 7.12502
rthumb 1.66029 -44.6296
lclavicle -7.95139e-015 2.8625e-014
lhumerus -59.395 -26.8296 109.888
lradius 41.5526
lwrist 11.2859
lhand -7.14652 25.0857
lfingers 7.12502
lthumb 18.7299 -305.796
rfemur 14.7092 43.3895 31.3582
rtibia -16.2225
rfoot 285.958 -13.2394
rtoes 45.8473
lfemur 5.34899 -66.6937 -19.8779
ltibia -3.04513
lfoot -73.7745 -4.87411
ltoes -13.369
875
root 5.86044 16.1931 -0.0156033 95.4762 -86.2294 -82.9135
lowerback 3.64234 0.920681 0.793869
upperback -11.2994 1.33336 3.93423
thorax -14.5421 0.649736 3.76654
lowerneck -13.5973 -8.78999 -8.12563
upperneck 28.4592 -14.7587 9.77788
head 13.1804 -6.5906 2.68562
rclavicle 1.47101e-014 -8.26944e-014
rhumerus -58.5017 36.704 -100.469
rradius 38.2384
rwrist -5.22567
rhand -25.3143 -15.0952
rfingers 7.12502
rthumb 1.20797 -45.0715
lclavicle 1.47101e-014 -8.26944e-014
lhumerus -59.161 -26.3808 109.84
lradius 41.3015
lwrist 11.2149
lhand -6.77661 25.9916
lfingers 7.12502
lthumb 19.0857 -304.925
rfemur 14.5687 43.2901 31.095
rtibia -16.2907
rfoot 286.148 -13.2207
rtoes 45.9586
lfemur 5.58593 -66.6915 -20.1328
ltibia -3.22183
lfoot -73.9384 -4.83462
ltoes -13.231
876
root 5.84291 16.1972 -0.0202949 96.2384 -86.2661 -83.6558
lowerback 3.59888 0.826134 0.522209
upperback -11.3016 1.18944 4.12937
thorax -14.5242 0.625312 4.16238
lowerneck -14.0829 -8.69049 -7.90532
upperneck 27.7651 -14.1963 9.0844
head 12.8433 -6.36999 2.46701
rclavicle 1.03368e-014 -4.05521e-014
rhumerus -58.8868 37.5778 -100.98
rradius 38.4739
rwrist -6.12006
rhand -24.1331 -15.8181
rfingers 7.12502
rthumb 2.34879 -45.7849
lclavicle 1.03368e-014 -4.05521e-014
lhumerus -58.7813 -25.8735 109.651
lradius 41.0438
lwrist 11.0789
lhand -6.62699 25.663
lfingers 7.12502
lthumb 19.2295 -305.268
rfemur 14.5995 43.1572 31.0634
rtibia -16.3535
rfoot 286.323 -13.0729
rtoes 45.9827
lfemur 6.07992 -66.7131 -20.5281
ltibia -3.39755
lfoot -74.1098 -4.93441
ltoes -13.0651
877
root 5.82649 16.201 -0.0236378 97.2995 -86.3447 -84.6561
lowerback 3.53649 0.808755 0.389007
upperback -11.3091 1.14706 4.11528
thorax -14.4933 0.618669 4.22799
lowerneck -14.4507 -8.49939 -7.57152
upperneck 26.8528 -13.6292 8.70548
head 12.4273 -6.10926 2.35819
rclavicle 0 4.77083e-015
rhumerus -59.0188 37.9223 -101.39
rradius 38.6208
rwrist -6.63779
rhand -22.2685 -15.892
rfingers 7.12502
rthumb 4.14948 -45.8313
lclavicle 0 4.77083e-015
lhumerus -58.4091 -25.6912 109.321
lradius 40.6697
lwrist 10.795
lhand -6.8715 24.8087
lfingers 7.12502
lthumb 18.9944 -306.099
rfemur 14.5975 43.0397 30.9569
rtibia -16.4575
rfoot 286.458 -13.0806
rtoes 45.8309
lfemur 6.48412 -66.7239 -20.9075
ltibia -3.54982
lfoot -74.245 -4.84937
ltoes -13.1739
878
root 5.81102 16.2035 -0.0252158 97.6485 -86.4313 -84.9847
lowerback 3.49768 0.806304 0.413088
upperback -11.3252 1.1343 4.00719
thorax -14.4813 0.601718 4.09485
lowerneck -14.8776 -8.30369 -7.20527
upperneck 26.2014 -13.0903 8.20582
head 12.1304 -5.86908 2.19306
rclavicle -8.05078e-015 -2.38542e-015
rhumerus -58.9021 38.0829 -101.523
rradius 38.697
rwrist -6.40203
rhand -25.186 -15.4387
rfingers 7.12502
rthumb 1.33188 -45.4143
lclavicle -8.05078e-015 -2.38542e-015
lhumerus -58.1965 -25.5994 109.004
lradius 40.3971
lwrist 10.6225
lhand -7.1224 24.6912
lfingers 7.12502
lthumb 18.7531 -306.193
rfemur 14.7129 42.861 30.9077
rtibia -16.6206
rfoot 286.51 -13.1239
rtoes 45.0198
lfemur 6.85789 -66.7847 -21.321
ltibia -3.5876
lfoot -74.3568 -4.5594
ltoes -13.471
879
root 5.79164 16.2033 -0.0293517 98.0163 -86.4507 -85.4086
lowerback 3.42429 0.80516 0.510237
upperback -11.2991 1.13307 3.92291
thorax -14.3953 0.583098 3.94309
lowerneck -15.1005 -8.32599 -7.1651
upperneck 25.8489 -12.8876 7.74886
head 11.9769 -5.81487 2.0463
rclavicle -1.55052e-014 2.94201e-014
rhumerus -58.6642 37.8969 -101.381
rradius 38.6967
rwrist -5.6501
rhand -25.4166 -14.7047
rfingers 7.12502
rthumb 1.1092 -44.6815
lclavicle -1.55052e-014 2.94201e-014
lhumerus -58.067 -25.5105 108.719
lradius 40.3441
lwrist 10.6793
lhand -7.14108 24.9012
lfingers 7.12502
lthumb 18.7351 -305.981
rfemur 14.9294 42.6822 31.0064
rtibia -16.6582
rfoot 286.614 -13.298
rtoes 43.7954
lfemur 7.5841 -66.8285 -21.9575
ltibia -3.66965
lfoot -74.5001 -4.34165
ltoes -13.6881
